<svg xmlns="http://www.w3.org/2000/svg" xmlns:xlink="http://www.w3.org/1999/xlink" width="500" zoomAndPan="magnify" viewBox="0 0 375 374.999991" height="500" preserveAspectRatio="xMidYMid meet" version="1.0"><defs><g/><clipPath id="cca388de97"><path d="M 98.085938 89.042969 L 295.335938 89.042969 L 295.335938 286.292969 L 98.085938 286.292969 Z M 98.085938 89.042969 " clip-rule="nonzero"/></clipPath></defs><rect x="-37.5" width="450" fill="#ffffff" y="-37.499999" height="449.999989" fill-opacity="1"/><rect x="-37.5" width="450" fill="#efebec" y="-37.499999" height="449.999989" fill-opacity="1"/><g clip-path="url(#cca388de97)"><path fill="#000000" d="M 140.472656 89.042969 L 295.339844 89.042969 L 295.339844 286.296875 L 98.085938 286.296875 L 98.085938 256.496094 C 98.597656 257.152344 99.117188 257.808594 99.640625 258.457031 L 99.640625 284.738281 L 293.777344 284.738281 L 293.777344 90.597656 L 139.570312 90.597656 C 139.867188 90.097656 140.15625 89.597656 140.445312 89.09375 Z M 140.472656 89.042969 " fill-opacity="1" fill-rule="evenodd"/></g><g fill="#000000" fill-opacity="1"><g transform="translate(81.020569, 203.554506)"><g><path d="M 37.394531 -0.0585938 L 67.527344 -77.054688 C 70.328125 -84.140625 73.246094 -85.390625 73.246094 -85.390625 L 66.933594 -85.390625 C 66.933594 -85.390625 68.957031 -84.140625 66.15625 -77.054688 L 40.3125 -11.015625 L 14.46875 -77.054688 C 11.730469 -84.140625 13.695312 -85.390625 13.695312 -85.390625 L 1.488281 -85.390625 C 1.488281 -85.390625 4.464844 -84.140625 7.207031 -77.054688 Z M 37.394531 -0.0585938 "/></g></g></g><g fill="#000000" fill-opacity="1"><g transform="translate(171.226255, 203.554506)"><g><path d="M 84.4375 -85.390625 L 75.6875 -85.390625 L 43.46875 -9.886719 L 11.195312 -85.390625 L 1.488281 -85.390625 C 1.488281 -85.390625 5.003906 -83.726562 5.003906 -77.472656 L 5.003906 -8.335938 C 5.003906 -1.25 2.5625 -0.0585938 2.5625 -0.0585938 L 8.871094 -0.0585938 C 8.871094 -0.0585938 6.371094 -1.25 6.371094 -8.335938 C 6.371094 -8.335938 6.429688 -78.839844 6.429688 -79.4375 C 6.730469 -78.839844 41.089844 -0.0585938 41.089844 -0.0585938 C 41.089844 -0.0585938 74.375 -78.902344 74.671875 -79.554688 L 74.671875 -8.335938 C 74.671875 -1.25 72.230469 -0.0585938 72.230469 -0.0585938 L 84.4375 -0.0585938 C 84.4375 -0.0585938 81.9375 -1.25 81.9375 -8.335938 L 81.9375 -77.53125 C 81.9375 -84.617188 84.4375 -85.390625 84.4375 -85.390625 Z M 84.4375 -85.390625 "/></g></g></g><g fill="#000000" fill-opacity="1"><g transform="translate(106.30713, 235.009314)"><g><path d="M 4.640625 -1.8125 L 7.640625 -8.953125 L 8.28125 -8.953125 L 4.421875 0.078125 L 4.078125 0.078125 L 0.203125 -8.953125 L 0.875 -8.953125 L 3.890625 -1.84375 C 4.097656 -1.332031 4.222656 -0.984375 4.265625 -0.796875 C 4.335938 -1.054688 4.460938 -1.394531 4.640625 -1.8125 Z M 4.640625 -1.8125 "/></g></g></g><g fill="#000000" fill-opacity="1"><g transform="translate(118.88654, 235.009314)"><g><path d="M 1.65625 0 L 1.65625 -8.953125 L 2.25 -8.953125 L 2.25 0 Z M 1.65625 0 "/></g></g></g><g fill="#000000" fill-opacity="1"><g transform="translate(126.894356, 235.009314)"><g><path d="M 5.53125 -8.171875 C 4.914062 -8.429688 4.304688 -8.5625 3.703125 -8.5625 C 2.484375 -8.5625 1.875 -8.109375 1.875 -7.203125 C 1.875 -6.804688 2.007812 -6.4375 2.28125 -6.09375 C 2.5625 -5.757812 2.898438 -5.460938 3.296875 -5.203125 C 3.691406 -4.941406 4.082031 -4.671875 4.46875 -4.390625 C 4.863281 -4.117188 5.195312 -3.789062 5.46875 -3.40625 C 5.75 -3.019531 5.890625 -2.601562 5.890625 -2.15625 C 5.890625 -1.394531 5.632812 -0.816406 5.125 -0.421875 C 4.613281 -0.0351562 3.910156 0.15625 3.015625 0.15625 C 2.117188 0.15625 1.351562 -0.0703125 0.71875 -0.53125 L 1.015625 -0.984375 C 1.617188 -0.597656 2.28125 -0.40625 3 -0.40625 C 3.71875 -0.40625 4.265625 -0.546875 4.640625 -0.828125 C 5.023438 -1.117188 5.21875 -1.535156 5.21875 -2.078125 C 5.21875 -2.453125 5.082031 -2.804688 4.8125 -3.140625 C 4.539062 -3.484375 4.207031 -3.789062 3.8125 -4.0625 C 3.414062 -4.332031 3.019531 -4.609375 2.625 -4.890625 C 2.238281 -5.179688 1.90625 -5.519531 1.625 -5.90625 C 1.351562 -6.300781 1.21875 -6.726562 1.21875 -7.1875 C 1.21875 -7.769531 1.4375 -8.234375 1.875 -8.578125 C 2.3125 -8.929688 2.90625 -9.109375 3.65625 -9.109375 C 4.40625 -9.109375 5.097656 -8.957031 5.734375 -8.65625 Z M 5.53125 -8.171875 "/></g></g></g><g fill="#000000" fill-opacity="1"><g transform="translate(137.845525, 235.009314)"><g><path d="M 1.65625 0 L 1.65625 -8.953125 L 2.25 -8.953125 L 2.25 0 Z M 1.65625 0 "/></g></g></g><g fill="#000000" fill-opacity="1"><g transform="translate(145.853341, 235.009314)"><g><path d="M 2.375 -1.1875 C 1.539062 -2.082031 1.125 -3.179688 1.125 -4.484375 C 1.125 -5.785156 1.539062 -6.878906 2.375 -7.765625 C 3.207031 -8.660156 4.257812 -9.109375 5.53125 -9.109375 C 6.800781 -9.109375 7.851562 -8.660156 8.6875 -7.765625 C 9.519531 -6.878906 9.9375 -5.785156 9.9375 -4.484375 C 9.9375 -3.179688 9.519531 -2.082031 8.6875 -1.1875 C 7.851562 -0.289062 6.800781 0.15625 5.53125 0.15625 C 4.257812 0.15625 3.207031 -0.289062 2.375 -1.1875 Z M 2.8125 -7.390625 C 2.125 -6.609375 1.78125 -5.640625 1.78125 -4.484375 C 1.78125 -3.328125 2.128906 -2.359375 2.828125 -1.578125 C 3.523438 -0.796875 4.425781 -0.40625 5.53125 -0.40625 C 6.632812 -0.40625 7.535156 -0.796875 8.234375 -1.578125 C 8.929688 -2.359375 9.28125 -3.328125 9.28125 -4.484375 C 9.28125 -5.640625 8.929688 -6.609375 8.234375 -7.390625 C 7.535156 -8.171875 6.628906 -8.5625 5.515625 -8.5625 C 4.410156 -8.5625 3.507812 -8.171875 2.8125 -7.390625 Z M 2.8125 -7.390625 "/></g></g></g><g fill="#000000" fill-opacity="1"><g transform="translate(161.012886, 235.009314)"><g><path d="M 2.234375 -7.53125 L 2.25 -6.46875 L 2.25 0 L 1.65625 0 L 1.65625 -9.03125 L 1.9375 -9.03125 L 7.828125 -2.234375 C 8.234375 -1.753906 8.546875 -1.375 8.765625 -1.09375 C 8.722656 -1.488281 8.703125 -1.945312 8.703125 -2.46875 L 8.703125 -8.953125 L 9.3125 -8.953125 L 9.3125 0.078125 L 9.03125 0.078125 L 3.015625 -6.859375 C 2.597656 -7.328125 2.332031 -7.644531 2.21875 -7.8125 Z M 2.234375 -7.53125 "/></g></g></g><g fill="#000000" fill-opacity="1"><g transform="translate(176.072235, 235.009314)"><g/></g></g><g fill="#000000" fill-opacity="1"><g transform="translate(184.681243, 235.009314)"><g><path d="M 5.890625 -0.46875 L 5.546875 -0.46875 L 2.9375 -6.796875 C 2.78125 -7.148438 2.65625 -7.460938 2.5625 -7.734375 L 2.4375 -6.78125 L 1.421875 0 L 0.796875 0 L 2.28125 -9.03125 L 2.625 -9.03125 L 5.421875 -2.390625 C 5.566406 -2.085938 5.679688 -1.796875 5.765625 -1.515625 C 5.785156 -1.609375 5.914062 -1.894531 6.15625 -2.375 L 9.265625 -9.03125 L 9.609375 -9.03125 L 10.984375 0 L 10.34375 0 L 9.375 -6.796875 C 9.300781 -7.222656 9.265625 -7.546875 9.265625 -7.765625 C 9.265625 -7.753906 9.25 -7.710938 9.21875 -7.640625 C 9.1875 -7.578125 9.132812 -7.460938 9.0625 -7.296875 C 8.988281 -7.140625 8.914062 -6.972656 8.84375 -6.796875 Z M 5.890625 -0.46875 "/></g></g></g><g fill="#000000" fill-opacity="1"><g transform="translate(200.554712, 235.009314)"><g><path d="M 2.125 -3.109375 L 0.84375 0 L 0.203125 0 L 3.96875 -9.015625 L 4.328125 -9.015625 L 8.109375 0 L 7.4375 0 L 6.140625 -3.109375 Z M 4.109375 -8.015625 C 4.097656 -8.003906 4.082031 -7.957031 4.0625 -7.875 C 3.945312 -7.507812 3.832031 -7.203125 3.71875 -6.953125 L 2.34375 -3.625 L 5.921875 -3.625 L 4.546875 -6.9375 C 4.253906 -7.570312 4.109375 -7.929688 4.109375 -8.015625 Z M 4.109375 -8.015625 "/></g></g></g><g fill="#000000" fill-opacity="1"><g transform="translate(212.958771, 235.009314)"><g><path d="M 1.65625 0 L 1.65625 -8.921875 C 2.445312 -8.984375 3.109375 -9.015625 3.640625 -9.015625 C 4.492188 -9.015625 5.195312 -8.789062 5.75 -8.34375 C 6.300781 -7.90625 6.578125 -7.285156 6.578125 -6.484375 C 6.578125 -5.941406 6.414062 -5.4375 6.09375 -4.96875 C 5.78125 -4.5 5.425781 -4.128906 5.03125 -3.859375 C 5.34375 -3.429688 5.722656 -2.921875 6.171875 -2.328125 C 6.628906 -1.742188 6.925781 -1.378906 7.0625 -1.234375 C 7.570312 -0.679688 8.148438 -0.367188 8.796875 -0.296875 L 8.78125 0.09375 C 8.269531 0.09375 7.851562 0.0195312 7.53125 -0.125 C 7.21875 -0.269531 6.914062 -0.492188 6.625 -0.796875 C 6.34375 -1.097656 5.628906 -2.035156 4.484375 -3.609375 C 3.671875 -3.609375 2.925781 -3.632812 2.25 -3.6875 L 2.25 0 Z M 4.125 -4.109375 C 4.488281 -4.109375 4.878906 -4.347656 5.296875 -4.828125 C 5.710938 -5.316406 5.921875 -5.878906 5.921875 -6.515625 C 5.921875 -7.160156 5.707031 -7.644531 5.28125 -7.96875 C 4.851562 -8.300781 4.285156 -8.46875 3.578125 -8.46875 C 3.191406 -8.46875 2.75 -8.453125 2.25 -8.421875 L 2.25 -4.171875 C 2.925781 -4.128906 3.550781 -4.109375 4.125 -4.109375 Z M 4.125 -4.109375 "/></g></g></g><g fill="#000000" fill-opacity="1"><g transform="translate(225.30021, 235.009314)"><g><path d="M 7.046875 -8.953125 L 3.234375 -4.625 C 3.742188 -4.007812 4.328125 -3.328125 4.984375 -2.578125 C 5.648438 -1.828125 6.082031 -1.363281 6.28125 -1.1875 C 6.476562 -1.007812 6.632812 -0.878906 6.75 -0.796875 C 6.863281 -0.710938 7.035156 -0.613281 7.265625 -0.5 C 7.503906 -0.394531 7.753906 -0.328125 8.015625 -0.296875 L 8 0.09375 C 7.5 0.09375 7.085938 0.0195312 6.765625 -0.125 C 6.441406 -0.269531 6.15625 -0.460938 5.90625 -0.703125 C 5.664062 -0.941406 5.140625 -1.523438 4.328125 -2.453125 C 3.515625 -3.390625 2.90625 -4.101562 2.5 -4.59375 L 6.34375 -8.953125 Z M 2.25 -8.953125 L 2.25 0 L 1.65625 0 L 1.65625 -8.953125 Z M 2.25 -8.953125 "/></g></g></g></svg>